<svg xmlns="http://www.w3.org/2000/svg" width="19" height="19" viewBox="0 0 19 19" fill="none">
  <path fill-rule="evenodd" clip-rule="evenodd" d="M10.2293 2.91662V3.64596C10.2162 4.2928 9.17001 4.66148 8.83929 3.95477C8.79525 3.85771 8.77188 3.75254 8.77066 3.64596V2.91662H6.58338C6.02196 2.88961 5.64598 2.15589 6.03218 1.70982C6.16505 1.5565 6.27237 1.47328 6.58338 1.45794C7.31199 1.45794 8.04133 1.45575 8.77066 1.45137V0.729337C8.76874 0.651574 8.78111 0.574119 8.80717 0.500826C8.90353 0.208069 9.19191 0 9.5146 0C9.90373 0.0153314 10.2206 0.306628 10.2293 0.729337V1.44261C11.6873 1.43385 13.146 1.42582 14.6046 1.43312V0.729337C14.6119 0.339481 14.8967 0.0167915 15.3194 0H15.3478C15.7377 0.0153314 16.0545 0.306628 16.0626 0.729337V1.44626L16.8459 1.45867C17.9637 1.49372 18.958 2.45522 18.9792 3.61894C19.0069 8.01176 19.0069 12.4053 18.9792 16.7988C18.9588 17.9268 17.9827 18.9372 16.8189 18.9591C11.9399 18.989 7.06012 18.989 2.18108 18.9591C1.0575 18.9379 0.0427089 17.9816 0.0208069 16.7988C-0.00693564 12.4053 -0.00693564 8.01176 0.0208069 3.61894C0.0412488 2.48296 1.01443 1.46598 2.2059 1.45794H2.93743V0.729337C2.93512 0.65155 2.94751 0.574025 2.97393 0.500826C3.0703 0.208069 3.35867 0 3.68063 0C4.07049 0.0153314 4.38734 0.306628 4.39537 0.729337V3.64596C4.38296 4.29207 3.36671 4.65418 3.01846 3.98106C2.96601 3.87708 2.93828 3.76241 2.93743 3.64596V2.9137C2.68823 2.91175 2.43901 2.91272 2.18984 2.91662C1.81969 2.9283 1.49043 3.25245 1.47875 3.6277C1.39735 8.01454 1.39735 12.4025 1.47875 16.7894C1.49043 17.1602 1.81458 17.4888 2.18984 17.5004C7.06286 17.591 11.9371 17.591 16.8102 17.5004C17.1803 17.4888 17.5096 17.1646 17.5212 16.7894C17.6023 12.4031 17.6023 8.01395 17.5212 3.6277C17.5102 3.43921 17.429 3.26168 17.2936 3.13007C17.1582 2.99847 16.9785 2.92232 16.7897 2.91662H16.0626V3.64596C16.0502 4.28622 15.031 4.64761 14.6857 3.98106C14.6336 3.87696 14.6058 3.76236 14.6046 3.64596V2.91662H10.2293ZM3.66603 14.5838C3.7638 14.5807 3.86119 14.5973 3.95243 14.6326C4.04366 14.6679 4.12687 14.7211 4.19712 14.7892C4.26738 14.8573 4.32323 14.9387 4.36138 15.0288C4.39953 15.1189 4.41918 15.2157 4.41918 15.3135C4.41918 15.4113 4.39953 15.5082 4.36138 15.5982C4.32323 15.6883 4.26738 15.7698 4.19712 15.8379C4.12687 15.9059 4.04366 15.9592 3.95243 15.9945C3.86119 16.0297 3.7638 16.0463 3.66603 16.0432C3.4765 16.0372 3.29673 15.9577 3.16478 15.8215C3.03283 15.6853 2.95905 15.5032 2.95905 15.3135C2.95905 15.1239 3.03283 14.9417 3.16478 14.8055C3.29673 14.6693 3.4765 14.5898 3.66603 14.5838ZM6.58338 14.5838C6.68191 14.5795 6.78029 14.5952 6.87258 14.63C6.96487 14.6647 7.04917 14.7178 7.12038 14.7861C7.19159 14.8543 7.24823 14.9362 7.2869 15.027C7.32557 15.1177 7.34545 15.2153 7.34535 15.3139C7.34525 15.4125 7.32517 15.5101 7.28633 15.6008C7.24748 15.6914 7.19067 15.7733 7.11932 15.8413C7.04798 15.9094 6.96358 15.9624 6.87121 15.9969C6.77885 16.0315 6.68044 16.047 6.58192 16.0425C6.39414 16.0339 6.21691 15.9532 6.08713 15.8172C5.95735 15.6812 5.88503 15.5004 5.88522 15.3125C5.88541 15.1245 5.95809 14.9438 6.08814 14.8081C6.21819 14.6724 6.39558 14.592 6.58338 14.5838ZM9.5 14.5838C9.68779 14.5922 9.8651 14.6727 9.99501 14.8086C10.1249 14.9445 10.1974 15.1252 10.1974 15.3132C10.1974 15.5011 10.1249 15.6819 9.99501 15.8177C9.8651 15.9536 9.68779 16.0341 9.5 16.0425C9.31221 16.0341 9.1349 15.9536 9.00499 15.8177C8.87508 15.6819 8.80257 15.5011 8.80257 15.3132C8.80257 15.1252 8.87508 14.9445 9.00499 14.8086C9.1349 14.6727 9.31221 14.5922 9.5 14.5838ZM3.66603 11.6672C3.7637 11.6641 3.861 11.6807 3.95214 11.7159C4.04329 11.7512 4.12642 11.8044 4.1966 11.8724C4.26678 11.9404 4.32259 12.0218 4.3607 12.1118C4.3988 12.2017 4.41844 12.2985 4.41844 12.3962C4.41844 12.4939 4.3988 12.5906 4.3607 12.6806C4.32259 12.7706 4.26678 12.852 4.1966 12.92C4.12642 12.988 4.04329 13.0412 3.95214 13.0764C3.861 13.1117 3.7637 13.1282 3.66603 13.1251C3.47669 13.1192 3.29711 13.0397 3.16529 12.9037C3.03348 12.7676 2.95977 12.5856 2.95977 12.3962C2.95977 12.2067 3.03348 12.0247 3.16529 11.8887C3.29711 11.7526 3.47669 11.6732 3.66603 11.6672ZM6.58338 11.6672C6.77672 11.6672 6.96213 11.744 7.09884 11.8807C7.23555 12.0174 7.31235 12.2028 7.31235 12.3962C7.31235 12.5895 7.23555 12.7749 7.09884 12.9116C6.96213 13.0483 6.77672 13.1251 6.58338 13.1251C6.39005 13.1251 6.20463 13.0483 6.06792 12.9116C5.93121 12.7749 5.85441 12.5895 5.85441 12.3962C5.85441 12.2028 5.93121 12.0174 6.06792 11.8807C6.20463 11.744 6.39005 11.6672 6.58338 11.6672ZM9.5 11.6672C9.59777 11.6641 9.69516 11.6807 9.78639 11.716C9.87763 11.7513 9.96084 11.8045 10.0311 11.8726C10.1013 11.9406 10.1572 12.0221 10.1953 12.1122C10.2335 12.2023 10.2532 12.2991 10.2532 12.3969C10.2532 12.4947 10.2335 12.5915 10.1953 12.6816C10.1572 12.7717 10.1013 12.8532 10.0311 12.9212C9.96084 12.9893 9.87763 13.0426 9.78639 13.0778C9.69516 13.1131 9.59777 13.1297 9.5 13.1266C9.31047 13.1206 9.1307 13.0411 8.99875 12.9049C8.8668 12.7687 8.79302 12.5865 8.79302 12.3969C8.79302 12.2073 8.8668 12.0251 8.99875 11.8889C9.1307 11.7527 9.31047 11.6732 9.5 11.6672ZM12.4166 11.6672C12.5144 11.6641 12.6118 11.6807 12.703 11.716C12.7942 11.7513 12.8775 11.8045 12.9477 11.8726C13.018 11.9406 13.0738 12.0221 13.112 12.1122C13.1501 12.2023 13.1698 12.2991 13.1698 12.3969C13.1698 12.4947 13.1501 12.5915 13.112 12.6816C13.0738 12.7717 13.018 12.8532 12.9477 12.9212C12.8775 12.9893 12.7942 13.0426 12.703 13.0778C12.6118 13.1131 12.5144 13.1297 12.4166 13.1266C12.2271 13.1206 12.0473 13.0411 11.9154 12.9049C11.7834 12.7687 11.7096 12.5865 11.7096 12.3969C11.7096 12.2073 11.7834 12.0251 11.9154 11.8889C12.0473 11.7527 12.2271 11.6732 12.4166 11.6672ZM15.3332 11.6672C15.4309 11.6641 15.5282 11.6807 15.6193 11.7159C15.7105 11.7512 15.7936 11.8044 15.8638 11.8724C15.934 11.9404 15.9898 12.0218 16.0279 12.1118C16.066 12.2017 16.0856 12.2985 16.0856 12.3962C16.0856 12.4939 16.066 12.5906 16.0279 12.6806C15.9898 12.7706 15.934 12.852 15.8638 12.92C15.7936 12.988 15.7105 13.0412 15.6193 13.0764C15.5282 13.1117 15.4309 13.1282 15.3332 13.1251C15.1439 13.1192 14.9643 13.0397 14.8325 12.9037C14.7007 12.7676 14.627 12.5856 14.627 12.3962C14.627 12.2067 14.7007 12.0247 14.8325 11.8887C14.9643 11.7526 15.1439 11.6732 15.3332 11.6672ZM6.58338 8.75059C6.67906 8.75059 6.77381 8.76943 6.86221 8.80605C6.95061 8.84266 7.03093 8.89633 7.09858 8.96399C7.16624 9.03165 7.21991 9.11197 7.25653 9.20037C7.29314 9.28877 7.31199 9.38351 7.31199 9.47919C7.31199 9.57488 7.29314 9.66962 7.25653 9.75802C7.21991 9.84642 7.16624 9.92674 7.09858 9.9944C7.03093 10.0621 6.95061 10.1157 6.86221 10.1523C6.77381 10.189 6.67906 10.2078 6.58338 10.2078C6.39014 10.2078 6.20482 10.131 6.06818 9.9944C5.93154 9.85776 5.85477 9.67243 5.85477 9.47919C5.85477 9.28595 5.93154 9.10063 6.06818 8.96399C6.20482 8.82735 6.39014 8.75059 6.58338 8.75059ZM9.5 8.75059C9.59852 8.74618 9.69692 8.76178 9.78925 8.79644C9.88158 8.8311 9.96593 8.88411 10.0372 8.95227C10.1085 9.02043 10.1652 9.10233 10.204 9.19301C10.2427 9.2837 10.2627 9.3813 10.2627 9.47992C10.2627 9.57854 10.2427 9.67614 10.204 9.76683C10.1652 9.85752 10.1085 9.93941 10.0372 10.0076C9.96593 10.0757 9.88158 10.1287 9.78925 10.1634C9.69692 10.1981 9.59852 10.2137 9.5 10.2093C9.31221 10.2009 9.1349 10.1203 9.00499 9.98449C8.87508 9.84863 8.80257 9.6679 8.80257 9.47992C8.80257 9.29195 8.87508 9.11122 9.00499 8.97536C9.1349 8.8395 9.31221 8.75899 9.5 8.75059ZM12.4166 8.75059C12.5151 8.74618 12.6135 8.76178 12.7059 8.79644C12.7982 8.8311 12.8825 8.88411 12.9538 8.95227C13.0251 9.02043 13.0818 9.10233 13.1206 9.19301C13.1593 9.2837 13.1793 9.3813 13.1793 9.47992C13.1793 9.57854 13.1593 9.67614 13.1206 9.76683C13.0818 9.85752 13.0251 9.93941 12.9538 10.0076C12.8825 10.0757 12.7982 10.1287 12.7059 10.1634C12.6135 10.1981 12.5151 10.2137 12.4166 10.2093C12.2288 10.2009 12.0515 10.1203 11.9216 9.98449C11.7917 9.84863 11.7192 9.6679 11.7192 9.47992C11.7192 9.29195 11.7917 9.11122 11.9216 8.97536C12.0515 8.8395 12.2288 8.75899 12.4166 8.75059ZM15.3332 8.75059C15.5266 8.75049 15.712 8.8272 15.8488 8.96384C15.9856 9.10048 16.0625 9.28586 16.0626 9.47919C16.0627 9.67253 15.986 9.85798 15.8493 9.99476C15.7127 10.1315 15.5273 10.2084 15.334 10.2085C15.2382 10.2086 15.1434 10.1898 15.055 10.1532C14.9665 10.1166 14.8861 10.0629 14.8184 9.99528C14.7507 9.92762 14.6969 9.84729 14.6603 9.75886C14.6236 9.67044 14.6047 9.57565 14.6046 9.47992C14.6046 9.38419 14.6234 9.28939 14.66 9.20093C14.6966 9.11247 14.7502 9.03208 14.8179 8.96436C14.8855 8.89663 14.9659 8.84289 15.0543 8.80622C15.1427 8.76954 15.2375 8.75063 15.3332 8.75059Z" fill="#F76B56"/>
</svg>