<svg xmlns="http://www.w3.org/2000/svg" width="19" height="19" viewBox="0 0 19 19" fill="none">
  <path d="M9.59054 17.6896C5.07443 17.6896 1.40088 14.0161 1.40088 9.49996C1.40088 4.98386 5.07443 1.3103 9.59054 1.3103C14.1066 1.3103 17.7802 4.98386 17.7802 9.49996C17.7802 14.0161 14.106 17.6896 9.59054 17.6896ZM9.59054 2.62065C5.79709 2.62065 2.71122 5.70651 2.71122 9.49996C2.71122 13.2934 5.79709 16.3793 9.59054 16.3793C13.384 16.3793 16.4698 13.2934 16.4698 9.49996C16.4698 5.70651 13.3833 2.62065 9.59054 2.62065ZM9.53812 10.1027H5.33191C5.15815 10.1027 4.99151 10.0337 4.86864 9.91082C4.74577 9.78795 4.67674 9.62131 4.67674 9.44755C4.67674 9.27378 4.74577 9.10714 4.86864 8.98427C4.99151 8.8614 5.15815 8.79237 5.33191 8.79237H8.88295V3.93099C8.88295 3.75723 8.95198 3.59058 9.07484 3.46772C9.19771 3.34485 9.36436 3.27582 9.53812 3.27582C9.71189 3.27582 9.87853 3.34485 10.0014 3.46772C10.1243 3.59058 10.1933 3.75723 10.1933 3.93099V9.44755C10.1933 9.62131 10.1243 9.78795 10.0014 9.91082C9.87853 10.0337 9.71189 10.1027 9.53812 10.1027Z" fill="#F76B56"/>
</svg>