<svg xmlns="http://www.w3.org/2000/svg" width="22" height="21" viewBox="0 0 22 21" fill="none">
  <g clip-path="url(#clip0_75_2858)">
    <path d="M3.86656 12.1898H0.637812C0.565625 12.1898 0.5 12.2489 0.5 12.3276V18.8311C0.5 18.9065 0.565625 18.9689 0.637812 18.9689H3.86328C3.94203 18.9689 4.00109 18.9033 4.00109 18.8311V12.3276C4.00191 12.3096 3.99901 12.2916 3.99258 12.2747C3.98615 12.2579 3.97632 12.2425 3.96371 12.2296C3.9511 12.2166 3.93597 12.2065 3.91926 12.1996C3.90255 12.1928 3.88461 12.1895 3.86656 12.1898ZM2.61641 18.3586C2.30469 18.3586 2.04875 18.1026 2.04875 17.7909C2.04875 17.4759 2.30469 17.22 2.61641 17.22C2.93141 17.22 3.18734 17.4759 3.18734 17.7909C3.18734 18.1026 2.93141 18.3586 2.61641 18.3586ZM20.6305 14.8444L15.4625 16.5473C15.2623 16.7311 14.9998 16.8361 14.7308 16.8361H9.34953C9.30471 16.8361 9.26173 16.8183 9.23004 16.7866C9.19835 16.7549 9.18055 16.7119 9.18055 16.6671C9.18055 16.6223 9.19835 16.5793 9.23004 16.5476C9.26173 16.5159 9.30471 16.4981 9.34953 16.4981H14.7308C14.9178 16.4981 15.0983 16.4259 15.2361 16.3012C15.2459 16.2881 15.2591 16.2783 15.2722 16.2651C15.4002 16.1306 15.4723 15.9469 15.4723 15.7533C15.4723 15.3431 15.1409 15.0084 14.7308 15.0084H11.0164C10.918 15.0084 10.8327 14.9723 10.7638 14.8969C9.1625 13.079 6.22906 12.8034 4.62125 12.8034C4.52281 12.8034 4.42766 12.8067 4.33906 12.8067V18.1026L9.27734 19.7859C10.4455 20.183 11.6956 20.288 12.9261 20.0681C13.7088 19.9317 14.4644 19.6703 15.1639 19.2937L21.1555 16.0387C21.3687 15.9239 21.4967 15.704 21.4967 15.4645C21.4967 15.3661 21.477 15.2742 21.4311 15.1856C21.3636 15.0397 21.2444 14.9239 21.0965 14.8609C20.9485 14.7979 20.7825 14.792 20.6305 14.8444ZM9.22484 3.69139L9.20187 5.28936C9.20187 5.30577 9.21172 5.31561 9.22484 5.31561H21.4803C21.4902 5.31561 21.5 5.30577 21.5 5.28936V3.71108L9.22484 3.69139ZM14.4388 12.9084V5.64702H9.80562V12.7378C9.80562 12.833 9.88109 12.9117 9.97625 12.9117H14.4388V12.9084ZM20.8995 12.7378V5.64702H16.2631V12.9084H20.7289C20.8208 12.9084 20.8995 12.8297 20.8995 12.7378ZM14.7734 5.64702H15.9317V12.9084H14.7734V5.64702ZM13.4511 3.30092L14.2222 3.55686H16.3452L17.1195 3.30092C17.326 3.23333 17.5116 3.11353 17.6582 2.95313C17.8048 2.79274 17.9075 2.5972 17.9563 2.38545C18.0613 1.95561 17.9333 1.50936 17.6183 1.19108C17.3787 0.948267 17.0605 0.817017 16.7225 0.817017C16.6208 0.817017 16.5223 0.830142 16.4239 0.85311C16.2122 0.901968 16.0167 1.00466 15.8563 1.15125C15.6959 1.29784 15.5761 1.48335 15.5084 1.68983L15.2886 2.35592L15.0655 1.68983C14.9178 1.26655 14.5766 0.951548 14.1434 0.85311C13.9321 0.801492 13.711 0.805492 13.5017 0.864721C13.2924 0.92395 13.102 1.03639 12.9491 1.19108C12.6341 1.50608 12.5061 1.95233 12.6078 2.38545C12.6586 2.59733 12.7627 2.7927 12.9103 2.95294C13.0579 3.11319 13.2441 3.23298 13.4511 3.30092ZM16.2041 1.9228C16.2631 1.74561 16.4075 1.61436 16.588 1.5717C16.6306 1.56186 16.6733 1.5553 16.7127 1.5553C16.8538 1.5553 16.9883 1.61108 17.0867 1.7128C17.218 1.84077 17.2738 2.03108 17.2311 2.21155C17.1852 2.3953 17.0539 2.53967 16.8767 2.59874L15.8595 2.9367L16.2041 1.9228ZM13.4708 1.71608C13.5725 1.61436 13.707 1.55858 13.8481 1.55858C13.8908 1.55858 13.9334 1.56514 13.9761 1.57499C14.1566 1.61764 14.3009 1.74889 14.36 1.92608L14.698 2.94327L13.6808 2.6053C13.5036 2.54624 13.3723 2.40186 13.3264 2.22139C13.287 2.03436 13.3395 1.84733 13.4708 1.71608Z" fill='currentColor'/>
  </g>
  <defs>
    <clipPath id="clip0_75_2858">
      <rect width="21" height="21" fill="white" transform="translate(0.5)"/>
    </clipPath>
  </defs>
</svg>