<svg xmlns="http://www.w3.org/2000/svg" width="23" height="23" viewBox="0 0 23 23" fill="none">
  <path fill-rule="evenodd" clip-rule="evenodd" d="M10.6868 2.63688C11.136 2.18777 11.8641 2.18777 12.3132 2.63688L20.3632 10.6869C20.6921 11.0158 20.7905 11.5104 20.6125 11.9401C20.4345 12.3699 20.0152 12.65 19.55 12.65H18.4V19.55C18.4 20.1852 17.8851 20.7 17.25 20.7H14.95C14.3149 20.7 13.8 20.1852 13.8 19.55V16.1C13.8 15.4649 13.2851 14.95 12.65 14.95H10.35C9.71489 14.95 9.20002 15.4649 9.20002 16.1V19.55C9.20002 20.1852 8.68515 20.7 8.05002 20.7H5.75002C5.11489 20.7 4.60002 20.1852 4.60002 19.55V12.65H3.45002C2.98489 12.65 2.56556 12.3699 2.38756 11.9401C2.20956 11.5104 2.30795 11.0158 2.63685 10.6869L10.6868 2.63688Z" fill="currentColor"/>
</svg>