<svg xmlns="http://www.w3.org/2000/svg" width="20" height="20" viewBox="0 0 20 20" fill="none">
  <path d="M3.02 12.5C4.17395 13.6556 5.71064 14.3493 7.34058 14.4505C8.97052 14.5516 10.5812 14.0532 11.8692 13.0492L16.3008 17.4809C16.458 17.6327 16.6685 17.7167 16.887 17.7148C17.1055 17.7129 17.3145 17.6252 17.469 17.4707C17.6235 17.3162 17.7112 17.1072 17.7131 16.8887C17.715 16.6702 17.631 16.4597 17.4792 16.3025L13.0475 11.8709C14.0961 10.5252 14.5918 8.83015 14.4337 7.1315C14.2755 5.43285 13.4753 3.85852 12.1962 2.72958C10.9172 1.60064 9.25569 1.00212 7.55055 1.05609C5.84541 1.11006 4.22507 1.81246 3.02 3.02003C2.39733 3.64238 1.90338 4.38132 1.56638 5.19462C1.22938 6.00793 1.05592 6.87966 1.05592 7.76003C1.05592 8.64039 1.22938 9.51213 1.56638 10.3254C1.90338 11.1387 2.39733 11.8777 3.02 12.5ZM4.19833 4.20003C5.02214 3.37623 6.1061 2.86356 7.26552 2.74936C8.42494 2.63515 9.58809 2.92648 10.5568 3.57371C11.5255 4.22094 12.2398 5.18402 12.5781 6.29887C12.9163 7.41372 12.8576 8.61136 12.4118 9.68774C11.966 10.7641 11.1609 11.6526 10.1334 12.2019C9.10602 12.7512 7.91994 12.9273 6.77727 12.7001C5.6346 12.473 4.60603 11.8566 3.86683 10.9561C3.12762 10.0557 2.72351 8.92672 2.72333 7.76169C2.72105 7.09967 2.85025 6.44379 3.10346 5.83209C3.35666 5.2204 3.72881 4.66508 4.19833 4.19836V4.20003Z" fill="#F76B56"/>
</svg>