<svg xmlns="http://www.w3.org/2000/svg" width="24" height="23" viewBox="0 0 24 23" fill="none">
  <mask id="mask0_63_56" style="mask-type:alpha" maskUnits="userSpaceOnUse" x="0" y="0" width="24" height="23">
    <rect x="0.5" width="23" height="23" fill="#D9D9D9"/>
  </mask>
  <g mask="url(#mask0_63_56)">
    <path d="M18.6125 19.4542L13.2458 14.0875C12.7667 14.4708 12.2156 14.7743 11.5927 14.9979C10.9698 15.2215 10.3069 15.3333 9.60417 15.3333C7.86319 15.3333 6.38992 14.7305 5.18433 13.525C3.97811 12.3187 3.375 10.8451 3.375 9.10417C3.375 7.36319 3.97811 5.8896 5.18433 4.68338C6.38992 3.47779 7.86319 2.875 9.60417 2.875C11.3451 2.875 12.8187 3.47779 14.025 4.68338C15.2305 5.8896 15.8333 7.36319 15.8333 9.10417C15.8333 9.80694 15.7215 10.4698 15.4979 11.0927C15.2743 11.7156 14.9708 12.2667 14.5875 12.7458L19.9781 18.1365C20.1538 18.3122 20.2417 18.5278 20.2417 18.7833C20.2417 19.0389 20.1458 19.2625 19.9542 19.4542C19.7785 19.6299 19.5549 19.7177 19.2833 19.7177C19.0118 19.7177 18.7882 19.6299 18.6125 19.4542ZM9.60417 13.4167C10.8021 13.4167 11.8205 12.9976 12.6593 12.1593C13.4976 11.3205 13.9167 10.3021 13.9167 9.10417C13.9167 7.90625 13.4976 6.88786 12.6593 6.049C11.8205 5.21078 10.8021 4.79167 9.60417 4.79167C8.40625 4.79167 7.38786 5.21078 6.549 6.049C5.71078 6.88786 5.29167 7.90625 5.29167 9.10417C5.29167 10.3021 5.71078 11.3205 6.549 12.1593C7.38786 12.9976 8.40625 13.4167 9.60417 13.4167Z" fill="currentColor"/>
  </g>
</svg>