<svg xmlns="http://www.w3.org/2000/svg" width="20" height="21" viewBox="0 0 20 21" fill="none">
  <g clip-path="url(#clip0_63_59)">
    <path d="M20 16.3333C20 16.1041 19.8125 15.9166 19.5833 15.9166H0.416667C0.1875 15.9166 0 16.1041 0 16.3333V18C0 18.2291 0.1875 18.4166 0.416667 18.4166H1.99167C1.79167 18.6375 1.66667 18.9291 1.66667 19.25C1.66667 19.6166 1.82917 19.95 2.08333 20.1791C2.30417 20.3791 2.6 20.5 2.91667 20.5C3.60417 20.5 4.16667 19.9375 4.16667 19.25C4.16667 18.9291 4.04167 18.6375 3.84167 18.4166H16.1583C15.9583 18.6375 15.8333 18.9291 15.8333 19.25C15.8333 19.9375 16.3958 20.5 17.0833 20.5C17.4 20.5 17.6958 20.3791 17.9167 20.1791C18.1708 19.95 18.3333 19.6166 18.3333 19.25C18.3333 18.9291 18.2083 18.6375 18.0083 18.4166H19.5833C19.8125 18.4166 20 18.2291 20 18V16.3333ZM4.16667 12.1666H2.08333V15.0833H5.41667V7.16663H2.08333V9.24996H4.16667C4.39583 9.24996 4.58333 9.43746 4.58333 9.66663C4.58333 9.89579 4.39583 10.0833 4.16667 10.0833H2.08333V11.3333H4.16667C4.39583 11.3333 4.58333 11.5208 4.58333 11.75C4.58333 11.9791 4.39583 12.1666 4.16667 12.1666Z" fill="currentColor"/>
    <path d="M9.58333 1.75H6.25V4.25H9.58333V1.75Z" fill="currentColor"/>
    <path d="M9.58333 5.08337H6.25V5.91671H9.58333V5.08337Z" fill="currentColor"/>
    <path d="M13.75 17.1666H10.4167V18H13.75V17.1666Z" fill="currentColor"/>
    <path d="M13.75 15.0833V5.91667H10.4167V15.0833H13.75ZM11.7875 6.87083C11.9417 6.71667 12.225 6.71667 12.3792 6.87083C12.4542 6.95 12.5 7.05833 12.5 7.16667C12.5 7.275 12.4542 7.38333 12.3792 7.4625C12.3 7.5375 12.1958 7.58333 12.0833 7.58333C11.975 7.58333 11.8667 7.5375 11.7875 7.4625C11.7125 7.38333 11.6667 7.275 11.6667 7.16667C11.6667 7.05417 11.7125 6.95 11.7875 6.87083ZM11.7875 8.5375C11.9417 8.38333 12.225 8.38333 12.3792 8.5375C12.4542 8.61667 12.5 8.725 12.5 8.83333C12.5 8.94167 12.4542 9.05 12.3792 9.12917C12.3583 9.14583 12.3375 9.1625 12.3167 9.17917C12.2917 9.19583 12.2667 9.20833 12.2417 9.21667C12.2167 9.22917 12.1917 9.2375 12.1667 9.24167C12.1375 9.24583 12.1125 9.25 12.0833 9.25C11.975 9.25 11.8667 9.20417 11.7875 9.12917C11.7125 9.05 11.6667 8.94583 11.6667 8.83333C11.6667 8.725 11.7125 8.61667 11.7875 8.5375ZM11.7875 10.2042C11.8875 10.1083 12.0292 10.0667 12.1667 10.0917C12.1917 10.0958 12.2167 10.1042 12.2417 10.1167C12.2667 10.125 12.2917 10.1375 12.3167 10.1542C12.3375 10.1667 12.3583 10.1875 12.3792 10.2042C12.4542 10.2833 12.5 10.3917 12.5 10.5C12.5 10.6083 12.4542 10.7167 12.3792 10.7958C12.3 10.8708 12.1958 10.9167 12.0833 10.9167C11.975 10.9167 11.8667 10.8708 11.7875 10.7958C11.75 10.7542 11.7208 10.7125 11.7 10.6583C11.6792 10.6083 11.6667 10.5542 11.6667 10.5C11.6667 10.3917 11.7125 10.2833 11.7875 10.2042ZM17.9167 18.4167V20.1792C17.6958 20.3792 17.4 20.5 17.0833 20.5C16.3958 20.5 15.8333 19.9375 15.8333 19.25C15.8333 18.9292 15.9583 18.6375 16.1583 18.4167H17.9167ZM17.9167 15.0833V14.25V5.5H15.8333C15.6042 5.5 15.4167 5.3125 15.4167 5.08333C15.4167 4.85417 15.6042 4.66667 15.8333 4.66667H17.9167V3.41667H15.8333C15.6042 3.41667 15.4167 3.22917 15.4167 3C15.4167 2.77083 15.6042 2.58333 15.8333 2.58333H17.9167V0.5H14.5833V15.0833H17.9167ZM6.25 6.75V15.0833H7.08333H7.5H8.33333H8.75H9.58333V6.75H6.25ZM7.53333 13.2583C7.55417 13.2042 7.58333 13.1625 7.62083 13.1208C7.6625 13.0833 7.70417 13.0542 7.75833 13.0333C7.83333 13 7.91667 12.9917 7.99583 13.0083C8.025 13.0125 8.05 13.0208 8.075 13.0333C8.1 13.0417 8.125 13.0542 8.14583 13.0708C8.17083 13.0833 8.19167 13.1042 8.2125 13.1208C8.2875 13.2 8.33333 13.3083 8.33333 13.4167C8.33333 13.4417 8.32917 13.4708 8.325 13.5C8.32083 13.525 8.3125 13.55 8.3 13.575C8.29167 13.6 8.27917 13.625 8.2625 13.65C8.24583 13.6708 8.22917 13.6917 8.2125 13.7125C8.19167 13.7292 8.17083 13.7458 8.14583 13.7625C8.125 13.7792 8.1 13.7917 8.075 13.8C8.05 13.8125 8.025 13.8208 7.99583 13.825C7.97083 13.8292 7.94167 13.8333 7.91667 13.8333C7.80833 13.8333 7.7 13.7875 7.62083 13.7125C7.54583 13.6333 7.5 13.5292 7.5 13.4167C7.5 13.3625 7.5125 13.3083 7.53333 13.2583Z" fill="currentColor"/>
  </g>
  <defs>
    <clipPath id="clip0_63_59">
      <rect width="20" height="20" fill="white" transform="translate(0 0.5)"/>
    </clipPath>
  </defs>
</svg>